<svg xmlns="http://www.w3.org/2000/svg" viewBox="0 0 264 98">
  <path fill="#77856E" d="M24.4907232,75 C29.3888679,75 33.9871261,73.5 37.9856115,70.1 L37.9856115,74 L50.4808785,74 L50.4808785,25.5 L37.9856115,25.5 L37.9856115,29.4 C34.1870504,26.3 29.2889057,24.5 23.7909883,24.5 C10.5959864,24.5 0,35.5 0,49.8 C0,56.4 2.39909125,62.4 6.1976524,66.8 C10.4960242,71.8 17.2934495,75 24.4907232,75 Z M25.790231,63 C18.4929951,63 12.9950776,57.4 12.9950776,49.8 C12.9950776,42.8 17.8932223,36.5 25.4903446,36.5 C30.4884513,36.5 34.7868232,38.9 37.4858008,42.5 L37.4858008,57 C34.9867474,60.6 30.6883756,63 25.790231,63 Z M70.4733056,98 L70.4733056,70.6 C74.3718289,73.6 78.5702385,75 83.4683832,75 C90.6656569,75 97.5630443,71.8 101.861416,66.8 C105.659977,62.4 107.959106,56.4 107.959106,49.8 C107.959106,35.5 97.36312,24.5 84.1681181,24.5 C78.6702007,24.5 73.772056,26.3 69.9734949,29.4 L69.9734949,25.5 L57.4782279,25.5 L57.4782279,98 L70.4733056,98 Z M84.1681181,63 C79.2699735,63 74.9716017,60.6 72.4725483,57 L72.4725483,42.5 C75.1715259,38.9 79.4698978,36.5 84.4680045,36.5 C92.0651268,36.5 96.9632715,42.8 96.9632715,49.8 C96.9632715,57.4 91.465354,63 84.1681181,63 Z M140.346838,75 C142.845892,75 146.744415,74.6 148.443771,74 L146.444529,63 C145.544869,63.2 143.045816,63.5 141.146535,63.5 C137.947747,63.5 135.848542,62.6 134.549034,61.1 C133.449451,59.8 132.94964,58 132.94964,55 L132.94964,36.5 L148.943582,36.5 L148.943582,25.5 L132.94964,25.5 L132.94964,12 L119.954563,12 L119.954563,25.5 L106.459674,25.5 L106.459674,36.5 L119.954563,36.5 L119.954563,53.5 C119.954563,60.4 121.054146,64.7 123.5532,68 C126.85195,72.4 132.549792,75 140.346838,75 Z M159.939417,16.6 C164.637637,16.6 168.436198,13 168.436198,8.3 C168.436198,3.6 164.637637,-4.26325641e-14 159.939417,-4.26325641e-14 C155.241197,-4.26325641e-14 151.442635,3.6 151.442635,8.3 C151.442635,13 155.241197,16.6 159.939417,16.6 Z M166.436956,74 L166.436956,25.5 L153.441878,25.5 L153.441878,74 L166.436956,74 Z M199.274517,74 L221.566073,25.5 L208.071185,25.5 L194.776221,55.1 L181.481257,25.5 L167.986369,25.5 L190.277925,74 L199.274517,74 Z M242.907989,75 C250.40515,75 258.102234,71.9 262.800454,66.3 L255.403256,58.9 C253.104127,61.4 248.705793,64.5 243.207876,64.5 C236.310488,64.5 230.812571,59.8 230.112836,53 L263.700114,53 C263.900038,51.9 264,50.6 264,49.3 C264,35.8 254.503597,24.5 241.108671,24.5 C226.714123,24.5 217.517607,36.3 217.517607,49.8 C217.517607,65 228.41348,75 242.907989,75 Z M250.705036,43.5 L230.712609,43.5 C231.312382,39.1 235.710716,35 241.108671,35 C246.406664,35 250.305187,39.2 250.705036,43.5 Z"/>
</svg>
