<svg width="95" height="33" viewBox="0 0 95 33" fill="none" xmlns="http://www.w3.org/2000/svg">
<path fill-rule="evenodd" clip-rule="evenodd" d="M12.3741 23.6322C11.0716 24.7424 9.57364 25.2322 7.97804 25.2322C5.63347 25.2322 3.41916 24.1873 2.01893 22.5547C0.781522 21.1179 0 19.1588 0 17.0037C0 12.3343 3.45172 8.74243 7.75009 8.74243C9.54108 8.74243 11.1367 9.33019 12.3741 10.3424V9.06896H16.4445V24.9057H12.3741V23.6322ZM4.23324 17.0036C4.23324 19.4853 6.02423 21.3138 8.40136 21.3138C9.99696 21.3138 11.3972 20.5302 12.2113 19.3546V14.62C11.3321 13.4444 9.93184 12.6608 8.30367 12.6608C5.82885 12.6608 4.23324 14.7179 4.23324 17.0036Z" fill="#111827"/>
<path fill-rule="evenodd" clip-rule="evenodd" d="M22.9572 23.7955V32.7424H18.7239V9.06896H22.7944V10.3424C24.0318 9.33019 25.6274 8.74243 27.4184 8.74243C31.7167 8.74243 35.1685 12.3343 35.1685 17.0037C35.1685 19.1588 34.4195 21.1179 33.1821 22.5547C31.7819 24.1873 29.535 25.2322 27.1904 25.2322C25.5948 25.2322 24.2271 24.7751 22.9572 23.7955ZM23.6085 19.3546C24.4225 20.5302 25.8228 21.3138 27.4184 21.3138C29.7955 21.3138 31.5865 19.4853 31.5865 17.0036C31.5865 14.7179 29.9909 12.6608 27.5161 12.6608C25.8879 12.6608 24.4877 13.4444 23.6085 14.62V19.3546Z" fill="#111827"/>
<path d="M45.719 25.2322C46.5331 25.2322 47.8031 25.1016 48.3567 24.9057L47.7054 21.3139C47.4123 21.3792 46.5982 21.4771 45.9795 21.4771C44.9375 21.4771 44.2537 21.1832 43.8304 20.6935C43.4722 20.269 43.3093 19.6812 43.3093 18.7016V12.6608H48.5195V9.06896H43.3093V4.6608H39.0761V9.06896H34.68V12.6608H39.0761V18.2118C39.0761 20.4649 39.4343 21.869 40.2484 22.9465C41.323 24.3832 43.1791 25.2322 45.719 25.2322Z" fill="#111827"/>
<path d="M52.1015 6.16284C53.6319 6.16284 54.8694 4.98733 54.8694 3.45264C54.8694 1.91794 53.6319 0.742432 52.1015 0.742432C50.571 0.742432 49.3336 1.91794 49.3336 3.45264C49.3336 4.98733 50.571 6.16284 52.1015 6.16284Z" fill="#111827"/>
<path d="M54.2181 24.9057V9.06896H49.9848V24.9057H54.2181Z" fill="#111827"/>
<path d="M64.9152 24.9057L72.1768 9.06896H67.7807L63.4498 18.7343L59.1189 9.06896H54.7228L61.9845 24.9057H64.9152Z" fill="#111827"/>
<path fill-rule="evenodd" clip-rule="evenodd" d="M85.6092 22.3914C84.0788 24.22 81.5714 25.2322 79.1291 25.2322C74.4074 25.2322 70.858 21.9669 70.858 17.0037C70.858 12.5955 73.8538 8.74243 78.543 8.74243C82.9065 8.74243 86 12.4322 86 16.8404C86 17.2649 85.9674 17.6894 85.9023 18.0486H74.961C75.1889 20.269 76.9799 21.8037 79.2268 21.8037C81.0178 21.8037 82.4506 20.7914 83.1995 19.9751L85.6092 22.3914ZM75.1563 14.9465H81.669C81.5388 13.5424 80.2688 12.171 78.5429 12.171C76.7845 12.171 75.3517 13.5098 75.1563 14.9465Z" fill="#111827"/>
<path d="M89.8294 13.839V10.6941H91.4232C91.551 10.6941 91.6902 10.7311 91.8408 10.8049C91.9914 10.876 92.1192 10.9868 92.2243 11.1373C92.3323 11.285 92.3863 11.4725 92.3863 11.6998C92.3863 11.9299 92.3309 12.126 92.2201 12.2879C92.1093 12.447 91.9743 12.5677 91.8152 12.6501C91.659 12.7325 91.5113 12.7737 91.372 12.7737H90.2215V12.2623H91.159C91.2527 12.2623 91.3536 12.2154 91.4615 12.1217C91.5723 12.0279 91.6277 11.8873 91.6277 11.6998C91.6277 11.5066 91.5723 11.376 91.4615 11.3078C91.3536 11.2396 91.2584 11.2055 91.176 11.2055H90.5198V13.839H89.8294ZM91.73 12.3561L92.5141 13.839H91.7556L90.9885 12.3561H91.73ZM91.0226 15.714C90.551 15.714 90.1093 15.626 89.6973 15.4498C89.2854 15.2737 88.9232 15.0294 88.6107 14.7169C88.2982 14.4044 88.0539 14.0422 87.8777 13.6302C87.7016 13.2183 87.6135 12.7765 87.6135 12.3049C87.6135 11.8333 87.7016 11.3916 87.8777 10.9797C88.0539 10.5677 88.2982 10.2055 88.6107 9.893C88.9232 9.5805 89.2854 9.33618 89.6973 9.16005C90.1093 8.98391 90.551 8.89584 91.0226 8.89584C91.4942 8.89584 91.936 8.98391 92.3479 9.16005C92.7598 9.33618 93.122 9.5805 93.4345 9.893C93.747 10.2055 93.9914 10.5677 94.1675 10.9797C94.3436 11.3916 94.4317 11.8333 94.4317 12.3049C94.4317 12.7765 94.3436 13.2183 94.1675 13.6302C93.9914 14.0422 93.747 14.4044 93.4345 14.7169C93.122 15.0294 92.7598 15.2737 92.3479 15.4498C91.936 15.626 91.4942 15.714 91.0226 15.714ZM91.0226 14.8958C91.4999 14.8958 91.9345 14.7794 92.3266 14.5464C92.7186 14.3135 93.0311 14.001 93.2641 13.6089C93.497 13.2169 93.6135 12.7822 93.6135 12.3049C93.6135 11.8277 93.497 11.393 93.2641 11.001C93.0311 10.6089 92.7186 10.2964 92.3266 10.0635C91.9345 9.8305 91.4999 9.71403 91.0226 9.71403C90.5453 9.71403 90.1107 9.8305 89.7186 10.0635C89.3266 10.2964 89.0141 10.6089 88.7811 11.001C88.5482 11.393 88.4317 11.8277 88.4317 12.3049C88.4317 12.7822 88.5482 13.2169 88.7811 13.6089C89.0141 14.001 89.3266 14.3135 89.7186 14.5464C90.1107 14.7794 90.5453 14.8958 91.0226 14.8958Z" fill="#111827"/>
</svg>
